<?xml version="1.0" standalone="no"?><!DOCTYPE svg PUBLIC "-//W3C//DTD SVG 1.1//EN" "http://www.w3.org/Graphics/SVG/1.1/DTD/svg11.dtd"><svg t="1543025567033" class="icon" style="" viewBox="0 0 1024 1024" version="1.1" xmlns="http://www.w3.org/2000/svg" p-id="968" xmlns:xlink="http://www.w3.org/1999/xlink" width="200" height="200"><defs><style type="text/css"></style></defs><path d="M821.333333 859.733333c-23.466667 0-42.666667-19.2-42.666666-42.666666V206.933333c0-23.466667 19.2-42.666667 42.666666-42.666666s42.666667 19.2 42.666667 42.666666v608c0 25.6-19.2 44.8-42.666667 44.8zM241.066667 855.466667c-12.8 0-25.6-4.266667-38.4-10.666667-25.6-14.933333-42.666667-42.666667-42.666667-74.666667V249.6c0-32 17.066667-59.733333 42.666667-74.666667 25.6-14.933333 55.466667-12.8 81.066666 2.133334L704 439.466667c25.6 14.933333 38.4 42.666667 38.4 72.533333s-14.933333 57.6-38.4 72.533333L283.733333 844.8c-12.8 8.533333-27.733333 10.666667-42.666666 10.666667z m4.266666-601.6V768l413.866667-256-413.866667-258.133333z" fill="#ffffff" p-id="969"></path></svg>