<?xml version="1.0" standalone="no"?><!DOCTYPE svg PUBLIC "-//W3C//DTD SVG 1.1//EN" "http://www.w3.org/Graphics/SVG/1.1/DTD/svg11.dtd"><svg t="1542725913011" class="icon" style="" viewBox="0 0 1024 1024" version="1.1" xmlns="http://www.w3.org/2000/svg" p-id="2648" xmlns:xlink="http://www.w3.org/1999/xlink" width="200" height="200"><defs><style type="text/css"></style></defs><path d="M215.43 228.859h73.598c11.068 0 20.149-9.049 20.149-20.116v-161.9c0-11.069-9.081-20.118-20.149-20.118H215.43c-11.197 0-20.116 9.048-20.116 20.118v161.901c0 11.066 8.919 20.115 20.116 20.115zM733.969 228.859H807.6c11.1 0 20.115-9.049 20.115-20.116v-161.9c0-11.069-9.016-20.118-20.115-20.118h-73.631c-11.1 0-20.246 9.048-20.246 20.118v161.901c0 11.066 9.146 20.115 20.246 20.115z" p-id="2649" fill="#ffffff"></path><path d="M894.219 104.129h-25.847v104.615c0 33.46-27.275 60.868-60.772 60.868h-73.631c-33.462 0-60.871-27.406-60.871-60.868V104.129H349.802v104.615c0 33.46-27.278 60.868-60.773 60.868H215.43c-33.527 0-60.837-27.406-60.837-60.868V104.129h-26.106c-64.517 0-117.021 52.47-117.021 117.049v659.783c0 64.774 52.504 117.243 117.021 117.243h765.732c64.68 0 117.247-52.469 117.247-117.243V221.176c0-64.577-52.568-117.047-117.247-117.047z m43.097 776.833c0 23.826-19.305 43.093-43.098 43.093H128.487c-23.599 0-42.837-19.267-42.837-43.093V438.479h851.668l-0.002 442.483z" p-id="2650" fill="#ffffff"></path></svg>