<?xml version="1.0" standalone="no"?><!DOCTYPE svg PUBLIC "-//W3C//DTD SVG 1.1//EN" "http://www.w3.org/Graphics/SVG/1.1/DTD/svg11.dtd"><svg t="1543023885803" class="icon" style="" viewBox="0 0 1024 1024" version="1.1" xmlns="http://www.w3.org/2000/svg" p-id="12516" xmlns:xlink="http://www.w3.org/1999/xlink" width="200" height="200"><defs><style type="text/css"></style></defs><path d="M431.158 134.737c0 0 0 0 0 0 0 44.648 36.194 80.842 80.842 80.842 44.648 0 80.842-36.194 80.842-80.842 0 0 0 0 0 0 0-44.648-36.194-80.842-80.842-80.842-44.648 0-80.842 36.194-80.842 80.842z" fill="#ffffff" p-id="12517"></path><path d="M431.158 512c0 0 0 0 0 0 0 44.648 36.194 80.842 80.842 80.842 44.648 0 80.842-36.194 80.842-80.842 0 0 0 0 0 0 0-44.648-36.194-80.842-80.842-80.842-44.648 0-80.842 36.194-80.842 80.842z" fill="#ffffff" p-id="12518"></path><path d="M431.158 889.263c0 0 0 0 0 0 0 44.648 36.194 80.842 80.842 80.842 44.648 0 80.842-36.194 80.842-80.842 0 0 0 0 0 0 0-44.648-36.194-80.842-80.842-80.842-44.648 0-80.842 36.194-80.842 80.842z" fill="#ffffff" p-id="12519"></path></svg>