<?xml version="1.0" standalone="no"?><!DOCTYPE svg PUBLIC "-//W3C//DTD SVG 1.1//EN" "http://www.w3.org/Graphics/SVG/1.1/DTD/svg11.dtd"><svg t="1542977307257" class="icon" style="" viewBox="0 0 1448 1024" version="1.1" xmlns="http://www.w3.org/2000/svg" p-id="2632" xmlns:xlink="http://www.w3.org/1999/xlink" width="282.8125" height="200"><defs><style type="text/css"></style></defs><path d="M726.543 180.592c34.237 0 62.21 27.765 62.21 62.21s-27.765 62.21-62.21 62.21c-34.237 0-62.21-27.765-62.21-62.21s27.974-62.21 62.21-62.21zM726.543 719.196c34.237 0 62.21 27.765 62.21 62.21s-27.765 62.21-62.21 62.21c-34.237 0-62.21-27.765-62.21-62.21s27.974-62.21 62.21-62.21zM726.543 449.893c34.237 0 62.21 27.765 62.21 62.21 0 34.237-27.765 62.21-62.21 62.21-34.237 0-62.21-27.765-62.21-62.21 0.208-34.445 27.974-62.21 62.21-62.21z" fill="#b3b3b3" p-id="2633"></path></svg>