<?xml version="1.0" standalone="no"?><!DOCTYPE svg PUBLIC "-//W3C//DTD SVG 1.1//EN" "http://www.w3.org/Graphics/SVG/1.1/DTD/svg11.dtd"><svg t="1542899969650" class="icon" style="" viewBox="0 0 1024 1024" version="1.1" xmlns="http://www.w3.org/2000/svg" p-id="2701" xmlns:xlink="http://www.w3.org/1999/xlink" width="200" height="200"><defs><style type="text/css"></style></defs><path d="M908.8 238.08H223.232l147.968-147.968c17.92-17.92 17.92-47.104 0-65.536-17.92-17.92-47.104-17.92-65.536 0L93.184 237.568c-24.064 21.504-24.064 58.368-24.064 71.68v536.576c0 25.6 20.992 46.08 46.08 46.08h793.088c25.6 0 46.08-20.992 46.08-46.08V284.16c0.512-25.088-20.48-46.08-45.568-46.08zM313.344 690.176c-66.048 0-119.808-53.76-119.808-120.32C193.536 504.32 247.296 450.56 313.344 450.56c66.048 0 119.808 53.76 119.808 119.808 0 66.56-53.76 119.808-119.808 119.808z m498.176 9.216h-240.128c-15.36 0-27.648-12.288-27.648-27.648 0-15.36 12.288-27.648 27.648-27.648h240.128c15.36 0 27.648 12.288 27.648 27.648 0 15.36-12.288 27.648-27.648 27.648z m0-187.392h-240.128c-15.36 0-27.648-12.288-27.648-27.648 0-15.36 12.288-27.648 27.648-27.648h240.128c15.36 0 27.648 12.8 27.648 27.648 0 15.36-12.288 27.648-27.648 27.648z" fill="#ffffff" p-id="2702"></path></svg>