<?xml version="1.0" standalone="no"?><!DOCTYPE svg PUBLIC "-//W3C//DTD SVG 1.1//EN" "http://www.w3.org/Graphics/SVG/1.1/DTD/svg11.dtd"><svg t="1542900061893" class="icon" style="" viewBox="0 0 1024 1024" version="1.1" xmlns="http://www.w3.org/2000/svg" p-id="4785" xmlns:xlink="http://www.w3.org/1999/xlink" width="200" height="200"><defs><style type="text/css"></style></defs><path d="M94.097297 979.718919c-8.302703 0-13.837838-2.767568-19.372973-8.302703-11.07027-11.07027-11.07027-27.675676 0-38.745946l210.335135-204.8c11.07027-11.07027 27.675676-11.07027 38.745946 0 11.07027 11.07027 11.07027 27.675676 0 38.745946l-210.335135 204.8c-5.535135 5.535135-13.837838 8.302703-19.372973 8.302703z" fill="#ffffff" p-id="4786"></path><path d="M464.951351 910.52973c-22.140541 0-41.513514-8.302703-58.118919-24.908108l-254.616216-254.616217c-16.605405-16.605405-24.908108-35.978378-24.908108-58.118919s8.302703-41.513514 24.908108-58.118918l387.45946-387.45946c102.4-102.4 268.454054-102.4 370.854054 0 49.816216 49.816216 77.491892 116.237838 77.491892 185.427027s-27.675676 135.610811-77.491892 185.427027l-387.45946 390.227027c-16.605405 16.605405-38.745946 22.140541-58.118919 22.140541z m-19.372973-60.886487c11.07027 11.07027 27.675676 11.07027 38.745946 0l390.227027-390.227027c38.745946-38.745946 60.886486-91.32973 60.886487-146.681081S913.297297 204.8 874.551351 166.054054C794.291892 85.794595 661.448649 85.794595 581.189189 166.054054L188.194595 556.281081c-5.535135 5.535135-8.302703 11.07027-8.302703 19.372973 0 8.302703 2.767568 13.837838 8.302703 19.372973l257.383783 254.616216z" fill="#ffffff" p-id="4787"></path><path d="M871.783784 287.827027c-5.535135 0-11.07027-2.767568-13.837838-11.07027-2.767568-8.302703-5.535135-13.837838-8.302703-22.140541-2.767568-8.302703 0-13.837838 5.535135-19.372973 5.535135-2.767568 13.837838 0 19.372973 5.535135l8.302703 24.908108c2.767568 8.302703-2.767568 13.837838-11.07027 16.605406 2.767568 5.535135 2.767568 5.535135 0 5.535135zM498.162162 340.410811c-2.767568 0-8.302703 0-11.07027-2.767568-5.535135-5.535135-5.535135-13.837838 0-19.372973L608.864865 193.72973c30.443243-30.443243 71.956757-49.816216 116.237838-49.816216s85.794595 16.605405 116.237838 49.816216c5.535135 5.535135 5.535135 13.837838 0 19.372973s-13.837838 5.535135-19.372973 0c-24.908108-24.908108-60.886486-41.513514-96.864865-41.513514-35.978378 0-71.956757 13.837838-96.864865 41.513514l-121.772973 121.772973c-2.767568 2.767568-5.535135 5.535135-8.302703 5.535135z" fill="#ffffff" p-id="4788"></path></svg>