<?xml version="1.0" standalone="no"?><!DOCTYPE svg PUBLIC "-//W3C//DTD SVG 1.1//EN" "http://www.w3.org/Graphics/SVG/1.1/DTD/svg11.dtd"><svg t="1542975044852" class="icon" style="" viewBox="0 0 1024 1024" version="1.1" xmlns="http://www.w3.org/2000/svg" p-id="5860" xmlns:xlink="http://www.w3.org/1999/xlink" width="200" height="200"><defs><style type="text/css"></style></defs><path d="M845.824 527.872c-18.944 0-34.816 15.36-34.816 34.816v232.96c0 29.184-23.552 52.736-52.736 52.736H222.208c-29.184 0-52.736-23.552-52.736-52.736v-232.96c0-18.944-15.36-34.816-34.816-34.816-18.944 0-34.816 15.36-34.816 34.816v232.96c0 67.072 54.784 121.856 121.856 121.856H757.76c67.072 0 121.856-54.784 121.856-121.856v-232.96c0.512-19.456-14.848-34.816-33.792-34.816z" p-id="5861" fill="#ffffff"></path><path d="M460.288 727.552c8.192 8.192 18.944 12.288 30.208 12.288 10.752 0 22.016-4.096 30.208-12.288l175.104-175.104c13.312-13.312 13.312-35.328 0-49.152-13.312-13.312-35.328-13.312-49.152 0L524.8 624.64V157.184c0-18.944-15.36-34.816-34.816-34.816S455.68 138.24 455.68 157.184V624.64L334.336 503.296c-13.312-13.312-35.328-13.312-49.152 0-13.312 13.312-13.312 35.328 0 49.152l175.104 175.104z" p-id="5862" fill="#ffffff"></path></svg>