<?xml version="1.0" standalone="no"?><!DOCTYPE svg PUBLIC "-//W3C//DTD SVG 1.1//EN" "http://www.w3.org/Graphics/SVG/1.1/DTD/svg11.dtd"><svg t="1542974990564" class="icon" style="" viewBox="0 0 1024 1024" version="1.1" xmlns="http://www.w3.org/2000/svg" p-id="4054" xmlns:xlink="http://www.w3.org/1999/xlink" width="200" height="200"><defs><style type="text/css"></style></defs><path d="M836 715.5h-48v85c0 11-9 20-20 20-6.3 0-11.9-2.9-15.6-7.5l-97.5-97.5H188c-33.1 0-60-26.9-60-60v-392c0-33.1 26.9-60 60-60h648c33.1 0 60 26.9 60 60v392c0 33.1-26.9 60-60 60z m20-448c0-13.3-10.7-24-24-24H192c-13.3 0-24 10.7-24 24v384c0 13.3 10.7 24 24 24h471v0.2c5.2-0.1 10.5 1.8 14.5 5.8L748 752v-56.5c0-11 9-20 20-20h64c13.3 0 24-10.7 24-24v-384z m-156 222c-16.6 0-30-13.4-30-30s13.4-30 30-30 30 13.4 30 30-13.4 30-30 30z m-188 0c-16.6 0-30-13.4-30-30s13.4-30 30-30 30 13.4 30 30-13.4 30-30 30z m-192 0c-16.6 0-30-13.4-30-30s13.4-30 30-30 30 13.4 30 30-13.4 30-30 30z" fill="#ffffff" p-id="4055"></path></svg>