<?xml version="1.0" standalone="no"?><!DOCTYPE svg PUBLIC "-//W3C//DTD SVG 1.1//EN" "http://www.w3.org/Graphics/SVG/1.1/DTD/svg11.dtd"><svg t="1542975062199" class="icon" style="" viewBox="0 0 1024 1024" version="1.1" xmlns="http://www.w3.org/2000/svg" p-id="6640" xmlns:xlink="http://www.w3.org/1999/xlink" width="200" height="200"><defs><style type="text/css"></style></defs><path d="M862.7 698.8h-0.1c-1.5-20.1-17.7-36.1-37.3-36.1-19.6 0-35.7 15.8-37.3 36.1h-0.1v75.1c0 19.1-14.8 34.8-33.1 34.8H220c-18.3 0-33.1-15.6-33.1-34.8v-524c0-19.1 14.9-34.7 33.1-34.7h444.8v-0.2c19.2-1.6 34.3-18.6 34.3-39.2 0-20.7-15.1-37.5-34.3-39.2v-0.1H220c-59.5 0-108 50.9-108 113.4v523.9c0 62.6 48.4 113.5 108 113.5h534.8c59.5 0 107.9-50.8 107.9-113.5v-75z m0 0" p-id="6641" fill="#ffffff"></path><path d="M498.5 735.7c-19.5 0-38.3-7.7-52.2-21.6L251.6 519.4c-28.7-28.8-28.7-75.5 0.2-104.2 28.8-28.7 75.5-28.7 104.2 0.2l142.5 142.7 287.7-287.6c28.7-28.8 75.5-28.8 104.2 0 28.8 28.7 28.8 75.5 0 104.2L550.5 714.1c-13.7 14.1-32.5 21.6-52 21.6z m0 0" p-id="6642" fill="#ffffff"></path></svg>