<?xml version="1.0" standalone="no"?><!DOCTYPE svg PUBLIC "-//W3C//DTD SVG 1.1//EN" "http://www.w3.org/Graphics/SVG/1.1/DTD/svg11.dtd"><svg t="1542978486596" class="icon" style="" viewBox="0 0 1024 1024" version="1.1" xmlns="http://www.w3.org/2000/svg" p-id="7664" xmlns:xlink="http://www.w3.org/1999/xlink" width="200" height="200"><defs><style type="text/css"></style></defs><path d="M865 551.86L534.76 743.43l-331.38 190c-21.57 13-49.11 6.48-62.56-16.19a53.25 53.25 0 0 1-5.43-22.66V129.87c0-25.4 20-45.87 45.33-45.87a49.73 49.73 0 0 1 25.36 7.52l328.69 190 2.14 1.59 328.64 190.45a44.12 44.12 0 0 1 16.73 61.56c-4.33 7-9.71 13-17.28 16.74zM488.84 664.68l263.94-152.22L491 361.34l-2.14-1-262.77-152.21v607.62l262.75-151.07z" fill="#dbdbdb" p-id="7665"></path></svg>