<?xml version="1.0" standalone="no"?><!DOCTYPE svg PUBLIC "-//W3C//DTD SVG 1.1//EN" "http://www.w3.org/Graphics/SVG/1.1/DTD/svg11.dtd"><svg t="1542891294337" class="icon" style="" viewBox="0 0 1024 1024" version="1.1" xmlns="http://www.w3.org/2000/svg" p-id="1708" xmlns:xlink="http://www.w3.org/1999/xlink" width="200" height="200"><defs><style type="text/css"></style></defs><path d="M417.3368888888889 177.03822222222226h422.3431111111111c21.845333333333333 0 36.40888888888889 14.563555555555556 43.690666666666665 36.40888888888889 0 21.845333333333333-7.281777777777778 36.40888888888889-29.127111111111113 43.690666666666665h-655.36c-29.127111111111113-7.281777777777778-43.690666666666665-14.563555555555556-50.97244444444444-36.40888888888889-7.281777777777778-21.845333333333333 14.563555555555556-43.690666666666665 36.40888888888889-43.690666666666665H417.3368888888889zM417.3368888888889 475.5911111111111h422.3431111111111c21.845333333333333 0 36.40888888888889 14.563555555555556 43.690666666666665 36.40888888888889 0 21.845333333333333-7.281777777777778 36.40888888888889-29.127111111111113 43.690666666666665h-655.36c-29.127111111111113-7.281777777777778-43.690666666666665-14.563555555555556-50.97244444444444-36.40888888888889-7.281777777777778-21.845333333333333 14.563555555555556-43.690666666666665 36.40888888888889-43.690666666666665H417.3368888888889zM417.3368888888889 774.144h422.3431111111111c21.845333333333333 0 36.40888888888889 14.563555555555556 43.690666666666665 36.40888888888889 0 21.845333333333333-7.281777777777778 36.40888888888889-29.127111111111113 43.690666666666665h-655.36c-21.845333333333333 0-36.40888888888889-7.281777777777778-43.690666666666665-29.127111111111113-7.281777777777778-21.845333333333333 14.563555555555556-43.690666666666665 36.40888888888889-50.97244444444444h225.7351111111111z" fill="#2c2c2c" p-id="1709"></path></svg>