<?xml version="1.0" standalone="no"?><!DOCTYPE svg PUBLIC "-//W3C//DTD SVG 1.1//EN" "http://www.w3.org/Graphics/SVG/1.1/DTD/svg11.dtd"><svg t="1542633711766" class="icon" style="" viewBox="0 0 1251 1024" version="1.1" xmlns="http://www.w3.org/2000/svg" p-id="1841" xmlns:xlink="http://www.w3.org/1999/xlink" width="244.3359375" height="200"><defs><style type="text/css"></style></defs><path d="M125.155556 198.030222c37.717333 0 68.266667-31.573333 68.266666-70.542222C193.422222 88.462222 162.872889 56.888889 125.155556 56.888889 87.438222 56.888889 56.888889 88.462222 56.888889 127.431111c0 39.025778 30.549333 70.599111 68.266667 70.599111z m0 376.433778c37.717333 0 68.266667-31.630222 68.266666-70.542222 0-39.025778-30.549333-70.599111-68.266666-70.599111-37.717333 0-68.266667 31.573333-68.266667 70.542222 0 38.968889 30.549333 70.542222 68.266667 70.542222z m0 376.376889c37.717333 0 68.266667-31.573333 68.266666-70.542222 0-38.968889-30.549333-70.542222-68.266666-70.542223-37.717333 0-68.266667 31.573333-68.266667 70.542223 0 38.968889 30.549333 70.542222 68.266667 70.542222zM375.466667 174.535111h773.688889c25.144889 0 45.511111-21.048889 45.511111-47.047111a46.307556 46.307556 0 0 0-45.511111-47.047111H375.466667c-25.144889 0-45.511111 21.048889-45.511111 47.047111 0 25.941333 20.366222 47.047111 45.511111 47.047111z m0 376.376889h773.688889c25.144889 0 45.511111-21.048889 45.511111-47.047111a46.307556 46.307556 0 0 0-45.511111-47.047111H375.466667c-25.144889 0-45.511111 21.048889-45.511111 47.047111 0 25.998222 20.366222 47.047111 45.511111 47.047111z m0 376.433778h773.688889c25.144889 0 45.511111-21.048889 45.511111-47.047111a46.307556 46.307556 0 0 0-45.511111-47.047111H375.466667c-25.144889 0-45.511111 21.048889-45.511111 47.047111 0 25.941333 20.366222 47.047111 45.511111 47.047111z" p-id="1842" fill="#ffffff"></path></svg>