<?xml version="1.0" standalone="no"?><!DOCTYPE svg PUBLIC "-//W3C//DTD SVG 1.1//EN" "http://www.w3.org/Graphics/SVG/1.1/DTD/svg11.dtd"><svg t="1543023296339" class="icon" style="" viewBox="0 0 1024 1024" version="1.1" xmlns="http://www.w3.org/2000/svg" p-id="8796" xmlns:xlink="http://www.w3.org/1999/xlink" width="200" height="200"><defs><style type="text/css"></style></defs><path d="M511.850086 913.980257c-23.813359 0-254.076696-185.15293-341.320713-297.283754-59.948347-54.733579-108.47455-156.862607-108.47455-228.878804 0-152.869666 111.957885-277.218766 249.575172-277.218766 84.037998 0 155.36244 69.546959 199.36563 141.401474 44.004213-71.854515 115.304096-141.401474 199.366653-141.401474 137.616264 0 249.576195 124.350123 249.576195 277.218766 0 72.176856-48.756447 174.49008-108.98211 229.340315C762.880399 730.720444 537.047977 913.980257 511.850086 913.980257zM311.631018 157.855214c-111.565958 0-202.318892 103.167684-202.318892 229.963509 0 59.993372 43.220361 149.362796 94.398973 195.142445 1.062192 0.969071 2.077312 2.030239 2.953262 3.184529 86.253456 112.049982 258.06759 240.887302 305.369919 275.31337 49.380664-35.671431 218.933291-165.639504 302.740022-274.829346 0.924045-1.154289 1.940189-2.237971 3.047406-3.228531 51.411927-45.895283 94.857415-135.449925 94.857415-195.581444 0-126.794801-90.752934-229.963509-202.315822-229.963509-72.431659 0-141.611252 77.208453-178.021509 153.724127-7.844665 16.476253-34.843576 16.476253-42.689265 0C453.2392 235.063667 384.061654 157.855214 311.631018 157.855214z" p-id="8797" fill="#ffffff"></path></svg>