<?xml version="1.0" standalone="no"?><!DOCTYPE svg PUBLIC "-//W3C//DTD SVG 1.1//EN" "http://www.w3.org/Graphics/SVG/1.1/DTD/svg11.dtd"><svg t="1543023331514" class="icon" style="" viewBox="0 0 1024 1024" version="1.1" xmlns="http://www.w3.org/2000/svg" p-id="9643" xmlns:xlink="http://www.w3.org/1999/xlink" width="200" height="200"><defs><style type="text/css"></style></defs><path d="M995.133992 765.100994c-1.34731-31.257582-22.527016-48.503144-50.497162-47.856436-27.700685 0.646709-45.970202 18.215625-48.610929 50.119916-1.886233 23.497079-0.269462 47.209727-0.754494 70.814591-1.34731 59.281621-14.658728 72.916394-76.042152 74.102026-59.119944 1.077848-118.347672 0.377247-177.467615 0.377247-136.724975 0-273.396057 0.107785-410.121032-0.107785-94.0961-0.107785-102.23385-7.92218-102.718881-96.197903-0.053892-15.736576 0.754493-31.580936-0.754494-47.209727-3.179651-33.197708-19.347365-50.497162-46.670803-52.00615-29.533026-1.616771-51.089979 17.784486-53.353459 52.00615-2.047911 31.365367-0.862278 62.89241-0.646708 94.365562 0.700601 101.910495 47.479189 147.665128 153.162151 148.204052 110.209922 0.646709 220.365952 0.161677 330.521983 0.161677h97.922459c83.640978 0 167.335848 1.13174 250.922933-0.431139 73.724779-1.34731 127.617162-42.467197 133.868678-104.820684 4.634745-46.778588 3.233543-94.419454 1.239525-141.521397z" fill="#ffffff" p-id="9644"></path><path d="M146.490644 410.920256l309.881199 314.300375 12.772495 12.880279c16.598854 17.083885 36.000112 26.676729 59.497191 17.676702a49.688777 49.688777 0 0 0 18.215625-12.395248c3.233543-2.26348 6.359301-4.74253 9.215597-7.544934 53.083997-52.383396 279.378111-282.557762 331.653723-335.749543 5.604808-5.766485 11.047938-11.910217 15.467114-18.592872 14.227589-21.449168 12.233571-42.413305-4.580853-61.167855-17.245562-19.185688-38.964193-19.940182-60.359468-9.323382-10.40123 5.173669-18.970119 14.71262-27.485116 23.173725-35.137833 35.407295-162.431641 164.371767-247.635498 250.869041V179.560257c0-40.580964 1.293417-81.215821-0.646708-121.689C560.599711 20.254374 542.599656 1.068686 513.605554 0.044731c-29.694703-1.023955-47.748651 17.353347-51.79058 54.431306-1.562879 14.012019-0.754493 28.401286-0.754493 42.574982V565.375824l-13.742558 6.143732c-26.46116-26.730622-52.976212-53.461244-79.383479-80.245758-55.239692-55.940293-109.724891-112.63508-165.934646-167.497525-25.32942-24.790496-54.754661-25.221635-74.964305-5.712593-21.772523 21.018029-21.018029 46.024095 2.69462 75.449336 5.065884 6.251516 11.101831 11.694647 16.706638 17.461132z" fill="#ffffff" p-id="9645"></path></svg>