<?xml version="1.0" standalone="no"?><!DOCTYPE svg PUBLIC "-//W3C//DTD SVG 1.1//EN" "http://www.w3.org/Graphics/SVG/1.1/DTD/svg11.dtd"><svg t="1543023406813" class="icon" style="" viewBox="0 0 1068 1024" version="1.1" xmlns="http://www.w3.org/2000/svg" p-id="11114" xmlns:xlink="http://www.w3.org/1999/xlink" width="208.59375" height="200"><defs><style type="text/css"></style></defs><path d="M985.667228 810.651826h-245.537391L534.572967 1024l-205.645913-213.348174H82.232097c-21.815652 0-42.74087-8.94887-58.145391-24.932174A87.084522 87.084522 0 0 1 0.000445 725.303652V85.348174C0.000445 62.686609 8.682184 40.96 24.086706 24.932174A80.584348 80.584348 0 0 1 82.232097 0h903.435131c45.412174 0 82.231652 38.199652 82.231652 85.348174v640c0 47.104-36.864 85.303652-82.231652 85.303652zM1024.000445 92.738783C1024.000445 66.114783 1004.054706 44.521739 979.478706 44.521739H89.043923c-24.576 0-44.521739 21.593043-44.521739 48.217044v627.044174c0 26.668522 19.945739 48.261565 44.521739 48.261565h251.770435L534.261315 960.957217l193.446956-192.912695H979.478706c24.576 0 44.521739-21.593043 44.521739-48.261565V92.738783zM288.100619 387.027478c0-9.661217 3.695304-18.921739 10.284522-25.778087a34.370783 34.370783 0 0 1 24.84313-10.640695c19.411478 0 35.127652 16.161391 35.127652 36.463304v36.507826a37.086609 37.086609 0 0 1-10.24 25.822609 34.370783 34.370783 0 0 1-24.887652 10.685217 35.706435 35.706435 0 0 1-35.127652-36.507826v-36.507826z m210.721391 0c0-9.661217 3.695304-18.921739 10.24-25.778087a34.370783 34.370783 0 0 1 24.887653-10.640695c19.366957 0 35.127652 16.161391 35.127652 36.463304v36.507826a37.086609 37.086609 0 0 1-10.284522 25.822609 34.370783 34.370783 0 0 1-24.84313 10.685217 35.706435 35.706435 0 0 1-35.127653-36.507826v-36.507826z m210.721392 0c0-9.661217 3.650783-18.921739 10.24-25.778087a34.370783 34.370783 0 0 1 24.84313-10.640695c19.411478 0 35.172174 16.161391 35.172174 36.463304v36.507826a37.086609 37.086609 0 0 1-10.329043 25.822609 34.370783 34.370783 0 0 1-24.843131 10.685217 35.706435 35.706435 0 0 1-35.08313-36.507826v-36.507826z" p-id="11115" fill="#ffffff"></path></svg>