<?xml version="1.0" standalone="no"?><!DOCTYPE svg PUBLIC "-//W3C//DTD SVG 1.1//EN" "http://www.w3.org/Graphics/SVG/1.1/DTD/svg11.dtd"><svg t="1542634597516" class="icon" style="" viewBox="0 0 1024 1024" version="1.1" xmlns="http://www.w3.org/2000/svg" p-id="1929" xmlns:xlink="http://www.w3.org/1999/xlink" width="200" height="200"><defs><style type="text/css"></style></defs><path d="M849.5 281.9V124.1c0-27.6-23.7-48.8-50.1-44.7l-486.7 76.3c-20.2 3.2-35.2 21.2-35.2 42.4v503.6c-15.1-6-31.6-9.3-48.8-9.3-73.1 0-132.4 59.3-132.4 132.5s59.3 132.5 132.4 132.5S361 898.2 361 825c0-2.3-0.1-4.6-0.2-6.9h0.2V358.5L765.9 295v323.1c-15.2-6-31.7-9.4-49-9.4-73.3 0-132.6 59.3-132.6 132.5s59.4 132.5 132.6 132.5 132.6-59.3 132.6-132.5c0-3.6-0.2-7.2-0.4-10.8V282l0.4-0.1z" p-id="1930" fill="#ffffff"></path></svg>