<?xml version="1.0" standalone="no"?><!DOCTYPE svg PUBLIC "-//W3C//DTD SVG 1.1//EN" "http://www.w3.org/Graphics/SVG/1.1/DTD/svg11.dtd"><svg t="1542801776193" class="icon" style="" viewBox="0 0 1024 1024" version="1.1" xmlns="http://www.w3.org/2000/svg" p-id="2941" xmlns:xlink="http://www.w3.org/1999/xlink" width="200" height="200"><defs><style type="text/css"></style></defs><path d="M512 69.826362c243.852373 0 442.173638 198.411248 442.173638 442.173638S755.852373 954.173638 512 954.173638 69.826362 755.852373 69.826362 512 268.147627 69.826362 512 69.826362z m0-69.826362C229.257223 0 0 229.257223 0 512S229.257223 1024 512 1024 1024 794.742777 1024 512 794.742777 0 512 0" fill="#2c2c2c" p-id="2942"></path><path d="M412.911353 749.949525c-33.257504 0-57.246819-26.742777-57.246819-63.671564V337.722039c0-36.910791 24.11529-63.653568 57.246819-63.653568a70.6542 70.6542 0 0 1 35.435079 10.168014l301.945027 174.277961c21.703761 12.453568 34.04935 31.99775 34.049349 53.485554s-12.453568 41.031986-34.049349 53.485554l-301.945027 174.295957a70.474236 70.474236 0 0 1-35.435079 10.168014z m12.687522-398.172232l-0.107979 320.445414 277.595782-160.168718z" fill="#2c2c2c" p-id="2943"></path></svg>