<?xml version="1.0" standalone="no"?><!DOCTYPE svg PUBLIC "-//W3C//DTD SVG 1.1//EN" "http://www.w3.org/Graphics/SVG/1.1/DTD/svg11.dtd"><svg t="1542725993776" class="icon" style="" viewBox="0 0 1024 1024" version="1.1" xmlns="http://www.w3.org/2000/svg" p-id="4757" xmlns:xlink="http://www.w3.org/1999/xlink" width="200" height="200"><defs><style type="text/css"></style></defs><path d="M921.6 837.81376l0-307.2c0-28.2752-22.92224-51.2-51.2-51.2L665.6 479.41376l0-307.2c0-28.28032-22.92224-51.2-51.2-51.2L409.6 121.01376c-28.27776 0-51.2 22.91968-51.2 51.2l0 128L153.6 300.21376c-28.27776 0-51.2 22.9248-51.2 51.2l0 486.4L0 837.81376l0 51.2 1024 0 0-51.2L921.6 837.81376zM153.6 837.81376 153.6 391.4112c0-28.2752-2.67776-39.99744 25.6-39.99744l179.2 0 0 486.4L153.6 837.81376zM409.6 837.81376l0-640c0-14.13888 11.46112-25.6 25.6-25.6l153.6 0c14.13888 0 25.6 11.46112 25.6 25.6l0 640L409.6 837.81376zM665.6 837.81376l0-307.2 179.2 0c28.27776 0 25.6 22.9248 25.6 51.20256l0 255.99744L665.6 837.81376z" p-id="4758" fill="#ffffff"></path></svg>