<?xml version="1.0" standalone="no"?><!DOCTYPE svg PUBLIC "-//W3C//DTD SVG 1.1//EN" "http://www.w3.org/Graphics/SVG/1.1/DTD/svg11.dtd"><svg t="1542979179767" class="icon" style="" viewBox="0 0 1024 1024" version="1.1" xmlns="http://www.w3.org/2000/svg" p-id="7933" xmlns:xlink="http://www.w3.org/1999/xlink" width="200" height="200"><defs><style type="text/css"></style></defs><path d="M512 1C229.923 1 1 229.923 1 512c0 282.069 228.923 511 511 511 282.069 0 511-228.931 511-511C1023 229.923 794.069 1 512 1z m0 989.292C246.277 990.292 33.704 777.723 33.704 512 33.704 246.277 246.277 33.707 512 33.707S990.293 246.277 990.293 512 777.723 990.292 512 990.292z" p-id="7934"></path><path d="M729.845 502.604a6621188.693 6621188.693 0 0 0-334.331-193.336c-1.583-0.912-3.208-1.854-4.919-2.495-9.196-3.422-17.444 2.281-17.565 12.077-0.015 1.269-0.007 2.552-0.007 3.835v381.382c0.007 1.562-0.064 3.13 0.079 4.677 0.442 4.599 3.322 7.828 7.756 9.054 4.021 1.119 7.457-0.128 10.915-2.11 48.113-27.539 96.261-55.021 144.381-82.523a348172.787 348172.787 0 0 0 193.13-110.413c2.067-1.176 4.213-2.488 5.796-4.213 3.792-4.142 3.308-9.518-0.97-13.139-1.278-1.099-2.797-1.941-4.265-2.796z" p-id="7935"></path></svg>