<?xml version="1.0" standalone="no"?><!DOCTYPE svg PUBLIC "-//W3C//DTD SVG 1.1//EN" "http://www.w3.org/Graphics/SVG/1.1/DTD/svg11.dtd"><svg t="1542633887426" class="icon" style="" viewBox="0 0 1024 1024" version="1.1" xmlns="http://www.w3.org/2000/svg" p-id="5654" xmlns:xlink="http://www.w3.org/1999/xlink" width="200" height="200"><defs><style type="text/css"></style></defs><path d="M68.608 459.264c0-216.064 176.64-391.232 394.496-391.232S857.6 243.2 857.6 459.264c0 216.064-176.64 391.168-394.496 391.168-217.92 0-394.496-175.104-394.496-391.168z m685.44 357.248L963.328 1024l60.672-60.16-208.448-206.72a455.04 455.04 0 0 0 110.656-297.856C926.208 205.632 718.848 0 463.104 0 207.296 0 0 205.632 0 459.264s207.36 459.2 463.104 459.2a463.488 463.488 0 0 0 290.944-101.952z" fill="#ffffff" p-id="5655"></path></svg>