<?xml version="1.0" standalone="no"?><!DOCTYPE svg PUBLIC "-//W3C//DTD SVG 1.1//EN" "http://www.w3.org/Graphics/SVG/1.1/DTD/svg11.dtd"><svg t="1543213689413" class="icon" style="" viewBox="0 0 1326 1024" version="1.1" xmlns="http://www.w3.org/2000/svg" p-id="2653" xmlns:xlink="http://www.w3.org/1999/xlink" width="258.984375" height="200"><defs><style type="text/css"></style></defs><path d="M590.043551 0C307.31435 0 78.043551 229.270798 78.043551 512 78.043551 794.729202 307.31435 1024 590.043551 1024 872.772753 1024 1102.043551 794.729202 1102.043551 512 1102.043551 229.270798 872.772753 0 590.043551 0z m0 921.657175c-226.269123 0-409.657175-183.388051-409.657175-409.657175S363.774428 102.342825 590.043551 102.342825s409.657175 183.388051 409.657175 409.657175-183.388051 409.657175-409.657175 409.657175z" fill="#2c2c2c" p-id="2654"></path><path d="M543.303183 679.379118V343.763261c0.142937-1.286432 0.142937-2.572864 0.142936-3.859297 0-26.443328-23.870463-48.026801-53.315466-48.0268-29.445003 0-53.315466 21.440536-53.315466 48.0268v339.475154c0 0.571748 0 1.143495 0.142937 1.85818 0 1.000558-0.142937 2.001117-0.142937 3.001675 0 26.443328 23.870463 48.026801 53.315466 48.0268 29.445003 0 53.315466-21.440536 53.315466-48.0268 0-1.429369-0.142937-2.858738-0.285873-4.288108 0.142937-0.285874 0.142937-0.428811 0.142937-0.571747zM743.128978 679.379118V343.763261c0.142937-1.286432 0.142937-2.572864 0.142937-3.859297 0-26.443328-23.870463-48.026801-53.315466-48.0268-29.445003 0-53.315466 21.440536-53.315466 48.0268v339.475154c0 0.571748 0 1.143495 0.142937 1.85818 0 1.000558-0.142937 2.001117-0.142937 3.001675 0 26.443328 23.870463 48.026801 53.315466 48.0268 29.445003 0 53.315466-21.440536 53.315466-48.0268 0-1.429369-0.142937-2.858738-0.285874-4.288108 0.142937-0.285874 0.142937-0.428811 0.142937-0.571747z" fill="#2c2c2c" p-id="2655"></path></svg>