<?xml version="1.0" standalone="no"?><!DOCTYPE svg PUBLIC "-//W3C//DTD SVG 1.1//EN" "http://www.w3.org/Graphics/SVG/1.1/DTD/svg11.dtd"><svg t="1543025648780" class="icon" style="" viewBox="0 0 1024 1024" version="1.1" xmlns="http://www.w3.org/2000/svg" p-id="5079" xmlns:xlink="http://www.w3.org/1999/xlink" width="200" height="200"><defs><style type="text/css"></style></defs><path d="M513.398348 3.856841c-281.421484 0-509.558391 228.135884-509.558391 509.559415 0 281.421484 228.136907 509.560438 509.558391 509.560438 281.419438 0 509.557368-228.13793 509.557368-509.560438 0-281.423531-228.138954-509.559415-509.557368-509.559415z m0 968.158181c-253.27954 0-458.602859-205.322295-458.602859-458.600813 0-253.278517 205.322295-458.602859 458.602859-458.602859 253.280564 0 458.600813 205.323319 458.600813 458.602859 0 253.278517-205.321272 458.600813-458.600813 458.600813z m231.301993-494.713289c-79.295997-53.956889-223.086891-134.716214-304.960597-184.755887-33.56956-21.169135-61.795415-12.666484-64.507176 24.720008-1.962701 100.139721 0 293.357328 0 395.230529 1.704828 37.954427 35.166941 42.960441 64.209394 27.721365 81.782631-49.547463 222.342947-134.705981 304.540018-184.507224-0.537236-0.327458 62.411445-34.94693 0.718361-78.408791z" fill="#ffffff" p-id="5080"></path></svg>